<?xml version="1.0" encoding="utf-8"?>
<!-- Generator: Adobe Illustrator 16.0.0, SVG Export Plug-In . SVG Version: 6.00 Build 0)  -->
<!DOCTYPE svg PUBLIC "-//W3C//DTD SVG 1.1//EN" "http://www.w3.org/Graphics/SVG/1.1/DTD/svg11.dtd">
<svg version="1.1" id="Layer_1" xmlns="http://www.w3.org/2000/svg" xmlns:xlink="http://www.w3.org/1999/xlink" x="0px" y="0px"
	 width="11px" height="11px" viewBox="0 0 11 11" enable-background="new 0 0 11 11" xml:space="preserve">
<g>
	<path fill="#5A5A5D" d="M6.702,8.076c-0.513,0-1.025,0-1.539,0c-0.384,0-0.555-0.171-0.555-0.428c0-0.3,0.214-0.428,0.598-0.428
		c0.513,0,0.983,0,1.496,0c0.13,0,0.3-0.085,0.386-0.171C7.13,7.008,7.045,6.793,6.96,6.708C6.617,6.195,6.232,5.682,5.849,5.169
		C5.421,4.57,5.421,4.271,6.019,3.801c0.599-0.47,1.24-0.855,1.882-1.24c0.385-0.214,0.385-0.3,0.085-0.642
		c-0.471-0.513-0.94-0.77-1.667-0.47C5.977,1.577,5.591,1.621,5.249,1.663C4.993,1.706,4.736,1.706,4.65,1.364
		C4.608,1.107,4.779,0.851,5.121,0.808C5.805,0.68,6.489,0.551,7.173,0.423c0.214-0.043,0.428,0.042,0.6,0.17
		c0.556,0.385,1.153,0.77,1.666,1.24c0.3,0.257,0.471,0.641,0.642,1.026c0.172,0.427,0.257,0.898,0.385,1.325
		c0.043,0.214,0.172,0.3,0.385,0.3c0.386,0,0.728,0,1.111,0c0.3,0,0.471,0.17,0.471,0.47c0,0.299-0.171,0.427-0.471,0.427
		c-0.556,0-1.153,0-1.709,0c-0.3,0-0.514-0.128-0.599-0.47C9.312,3.801,9.396,3.929,8.498,4.485C7.643,5.041,7.643,5.041,8.07,5.981
		c0.215,0.47,0.428,0.984,0.643,1.455c0.171,0.426,0.043,0.684-0.428,0.684C7.729,8.119,7.216,8.076,6.702,8.076L6.702,8.076z"/>
	<path fill="#5A5A5D" d="M5.591,3.331c-0.085,0.128-0.17,0.256-0.256,0.342C4.822,4.057,4.309,4.441,3.752,4.827
		c-0.256,0.171-0.47,0.128-0.684-0.085c-0.641-0.855-1.24-1.71-1.881-2.522C1.06,1.962,1.06,1.706,1.316,1.535
		C1.829,1.15,2.342,0.765,2.898,0.38c0.256-0.17,0.513-0.128,0.684,0.129c0.598,0.855,1.24,1.667,1.839,2.522
		C5.463,3.074,5.506,3.202,5.591,3.331z"/>
	<path fill="#5A5A5D" d="M10.936,1.407c0.172,0.214,0.342,0.384,0.47,0.598c-0.341,0.3-0.94,0.256-1.325,0
		C9.653,1.706,9.481,1.15,9.609,0.68c0.172-0.514,0.6-0.855,1.112-0.898c0.514,0,1.026,0.299,1.196,0.812
		c0.13,0.343,0.043,1.027-0.128,1.027C11.534,1.621,11.277,1.492,10.936,1.407z"/>
	<path fill="#5A5A5D" d="M8.156,8.547c-0.77,0.726-1.496,1.368-2.18,2.009l-0.043,0.043c-0.3,0.214-0.599,0.257-0.728,0.042
		c-0.17-0.298-0.043-0.513,0.172-0.726c0.384-0.386,0.769-0.813,1.196-1.198c0.128-0.128,0.3-0.17,0.471-0.213
		C7.345,8.547,7.686,8.547,8.156,8.547z"/>
	<path fill="#5A5A5D" d="M-0.822,10.343c1.881,0,3.72,0,5.644,0c-0.171,0.298-0.342,0.385-0.642,0.341
		c-1.582-0.128-3.164-0.213-4.703-0.299C-0.651,10.343-0.737,10.343-0.822,10.343C-0.865,10.343-0.822,10.343-0.822,10.343z"/>
	<path fill="#5A5A5D" d="M-1.292,9.359c1.453,0,2.864,0,4.36,0C2.77,9.615,2.598,9.787,2.256,9.743
		C1.102,9.615-0.052,9.487-1.292,9.359z"/>
</g>
</svg>
