<?xml version="1.0" encoding="utf-8"?>
<!-- Generator: Adobe Illustrator 21.0.0, SVG Export Plug-In . SVG Version: 6.00 Build 0)  -->
<svg version="1.1" id="Layer_1" xmlns="http://www.w3.org/2000/svg" xmlns:xlink="http://www.w3.org/1999/xlink" x="0px" y="0px"
	 viewBox="0 0 32 32" style="enable-background:new 0 0 32 32;" xml:space="preserve">
<style type="text/css">
	.st0{fill:#59595C;}
</style>
<g>
	<path class="st0" d="M23,23.7c-0.5,0.5-1.1,0.8-1.7,0.9c-0.3,0-0.6,0-0.8,0c-1.6-0.4-3.2-0.8-4.6-1.6c-3.9-2.2-6.1-5.5-6.6-10
		c-0.1-1.2-0.1-2.4-0.1-3.6c0-1.3,1.3-2.4,2.6-2.4c1.4,0,2.6,1.1,2.7,2.4c0,0.8,0,1.7,0,2.5c-0.1,1.3-1.3,2.4-2.7,2.4
		c-0.1,0-0.2,0-0.4,0c0.8,2.9,2.4,5.1,5,6.7c0-0.1,0.1-0.2,0.1-0.2c0.4-1.5,1.8-2.3,3.3-1.9c0.6,0.2,1.2,0.3,1.8,0.5
		c1.1,0.3,1.7,1,2,2.2c0,0.1,0.1,0.2,0.2,0.3c2.5,1.5,2.7,4.8,0.9,6.9c-0.4,0.5-0.9,0.9-1.4,1.3c-2.5,1.6-5.2,2.2-8.2,2
		c-3.6-0.2-6.8-1.5-9.5-3.8c-2.9-2.5-4.8-5.7-5.4-9.5C-0.9,11.5,2.6,4.7,9.1,1.6c7.5-3.6,16.8-0.7,20.8,6.6c1.6,2.9,2.3,6,2,9.3
		c-0.1,1.7-0.6,3.3-1.2,4.8c-0.2,0.6-0.8,0.8-1.3,0.6c-0.5-0.2-0.8-0.8-0.5-1.4c0.7-1.7,1.1-3.6,1.1-5.4c0-6.3-4.3-11.9-10.4-13.6
		C11.9,0.5,4,5.3,2.3,13c-1.5,7,2.5,14.1,9.4,16.3c2.9,0.9,5.8,1,8.7-0.1c0.7-0.3,1.5-0.7,2.1-1.1c1-0.7,1.5-1.8,1.3-3.1
		C23.7,24.5,23.5,24.1,23,23.7z"/>
</g>
</svg>
