<?xml version="1.0" encoding="utf-8"?>
<!-- Generator: Adobe Illustrator 21.0.0, SVG Export Plug-In . SVG Version: 6.00 Build 0)  -->
<svg version="1.1" id="Layer_1" xmlns="http://www.w3.org/2000/svg" xmlns:xlink="http://www.w3.org/1999/xlink" x="0px" y="0px"
	 viewBox="0 0 32 32" style="enable-background:new 0 0 32 32;" xml:space="preserve">
<style type="text/css">
	.st0{fill:#59595C;}
</style>
<g>
	<path class="st0" d="M3.9,11.3c8.1,0,16.1,0,24.2,0c0,4.4,0,8.8,0,13.3c-8,0-16.1,0-24.2,0C3.9,20.2,3.9,15.7,3.9,11.3z M14.1,23.3
		c4.3,0,8.5,0,12.8,0c0-3.6,0-7.2,0-10.8c-7.3,0-14.5,0-21.7,0c0,3.6,0,7.2,0,10.8c0.6,0,1.2,0,1.9,0c0-2.3,0-4.6,0-6.9
		c2.4,0,4.7,0,7,0C14.1,18.7,14.1,21,14.1,23.3z M8.3,23.3c1.6,0,3,0,4.4,0c0-1.9,0-3.8,0-5.7c-1.5,0-3,0-4.4,0
		C8.3,19.6,8.3,21.4,8.3,23.3z"/>
	<path class="st0" d="M27.5,9.7c-1.4,1.1-2.2,1.1-3.8,0c-1.3,1.1-2.6,1.1-3.8,0c-1.5,1.1-2.3,1.1-3.8,0c-1.7,1-2.4,1-3.9,0
		c-1.6,1-2.4,1.1-3.8,0c-1.3,1-2.5,1.1-3.8,0C4.3,9.9,4,10.1,3.8,10.2c-1,0.6-2.2,0.4-3-0.4c-0.8-0.8-1-2.1-0.3-3.1
		C1.5,5.1,2.7,3.5,3.9,2c0.1-0.2,0.5-0.3,0.8-0.3c7.5,0,15.1,0,22.6,0c0.3,0,0.7,0.2,0.9,0.5c1.1,1.4,2.1,2.8,3.1,4.1
		c0.9,1.3,0.9,2.6,0,3.5c-1,1-2.2,1-3.5,0.1C27.7,9.8,27.6,9.8,27.5,9.7z M8.8,8c0,0.1,0,0.2,0,0.2c0.5,0.3,1,1,1.4,0.9
		c0.6,0,1.1-0.6,1.7-1c0-0.1-0.1-0.1-0.1-0.2c0.3,0,0.7,0,1,0c0,0.1-0.1,0.1-0.1,0.2c0.5,0.3,1,1,1.4,1c0.6,0,1.1-0.6,1.7-1
		c0-0.1-0.1-0.1-0.1-0.2c0.3,0,0.7,0,1,0c0,0.1-0.1,0.2-0.1,0.2c0.5,0.3,1,0.9,1.5,0.9c0.5,0,1.1-0.6,1.6-1c0-0.1-0.1-0.1-0.1-0.2
		c0.3,0,0.7,0,1,0c0.4,0.5,0.8,1,1.3,1.2c0.3,0.1,1-0.3,1.2-0.6c0.3-0.7,0.8-0.7,1.3-0.5c0.4,0.4,0.9,1,1.5,1.1
		c1.4,0.1,1.2-1.3,1.7-2.2c0.4,0.5,0.7,1,1,1.4c0.6,0.8,1.3,1,2,0.5c0.6-0.5,0.7-1.2,0.1-2c-0.9-1.2-1.8-2.5-2.8-3.7
		c-0.2-0.2-0.6-0.4-0.9-0.4c-7.1,0-14.2,0-21.3,0C5.1,2.9,4.7,3,4.5,3.3c-1,1.3-2,2.6-3,3.9C1.1,7.8,1.2,8.6,1.8,9
		c0.6,0.5,1.4,0.3,1.9-0.4c0.4-0.5,0.7-1,1.1-1.6c0.8,2,1,2.3,1.5,2.2c0.6-0.2,1.1-0.7,1.7-1C8,8.2,7.9,8.1,7.9,8C8.2,8,8.5,8,8.8,8
		z"/>
	<path class="st0" d="M31.9,30.4c-10.6,0-21.2,0-31.8,0C-0.3,28,1.2,26,3.6,26c8.3,0,16.5,0,24.8,0C30.7,26,32.2,27.7,31.9,30.4z
		 M1.4,29c9.8,0,19.5,0,29.2,0c-0.3-1.1-1-1.7-2.1-1.7c-8.3,0-16.6,0-24.8,0C2.5,27.3,1.8,27.9,1.4,29z"/>
</g>
</svg>
