<?xml version="1.0" encoding="utf-8"?>
<!-- Generator: Adobe Illustrator 21.0.0, SVG Export Plug-In . SVG Version: 6.00 Build 0)  -->
<svg version="1.1" id="Layer_1" xmlns="http://www.w3.org/2000/svg" xmlns:xlink="http://www.w3.org/1999/xlink" x="0px" y="0px"
	 viewBox="0 0 32 32" style="enable-background:new 0 0 32 32;" xml:space="preserve">
<style type="text/css">
	.st0{fill:#59595C;}
</style>
<g>
	<path class="st0" d="M28,10.8c-0.8-4.8-6-8.9-11.6-9.1C10.8,1.5,5.4,5.5,4.1,10.8c0.2,0,0.4,0,0.5-0.1c2.1-0.4,4.2,1.1,4.2,3.2
		c0.1,1.3,0.1,2.6,0,3.9c-0.1,1.9-1.6,3.4-3.5,3.4c-1.9,0-3.5-1.5-3.5-3.4c0-2.8-0.2-5.6,0.7-8.3c1.7-5.2,6.7-9,12.2-9.5
		c6.8-0.6,13.8,3.9,15.2,11.4c0.4,2.3,0.2,4.7,0.3,7C28.8,24.1,25,28.8,18.4,30c-0.3,0.1-0.7,0.3-0.9,0.6c-0.7,1.1-1.8,1.6-3.1,1.3
		c-1.1-0.3-2-1.4-2-2.6c0-1.2,0.8-2.2,2-2.5c1.1-0.3,2.2,0.1,2.9,1.1c0.2,0.3,0.3,0.4,0.7,0.4c3.8-0.5,7.6-3.4,9.2-7
		c-0.2,0-0.4,0-0.6,0c-2,0-3.5-1.5-3.5-3.5c0-1.2,0-2.5,0-3.7c0-2.3,2-3.8,4.3-3.4C27.6,10.8,27.8,10.8,28,10.8z M24.9,16
		C24.9,16,24.9,16,24.9,16c0,0.6,0,1.3,0,1.9c0.1,1,0.8,1.7,1.7,1.7c1,0,1.8-0.6,1.8-1.6c0.1-1.3,0.1-2.6,0-3.9c0-1-0.8-1.6-1.8-1.6
		c-0.9,0-1.7,0.7-1.7,1.7C24.9,14.8,24.9,15.4,24.9,16z M3.6,16L3.6,16c0,0.6,0,1.2,0,1.8c0,0.1,0,0.1,0,0.2
		c0.1,0.9,0.8,1.5,1.7,1.6c0.9,0,1.8-0.6,1.8-1.5c0.1-1.3,0.1-2.7,0-4.1c0-0.9-0.9-1.6-1.8-1.5c-0.9,0-1.6,0.7-1.7,1.6
		C3.6,14.7,3.6,15.3,3.6,16z"/>
</g>
</svg>
